<svg xmlns="http://www.w3.org/2000/svg" xml:lang="en" height="166.70000000000005pt" width="447.75200000000007pt" viewBox="-378.90400000000005 -9.1 447.75200000000007 166.70000000000005"><circle cx="-152.28000000000003" cy="13.5" r="4.32" style="stroke:black;fill:none;stroke-width:2.0;" /><circle cx="-168.29999999999998" cy="135.0" r="4.32" style="stroke:black;fill:none;stroke-width:2.0;" /><path d="M -55.80000000000001,95.26500000000001 L -37.80000000000001,95.26500000000001 L -37.2857142857143,95.25765306122449 L -36.77142857142859,95.23561224489796 L -36.257142857142874,95.19887755102042 L -35.742857142857154,95.14744897959184 L -35.22857142857144,95.08132653061224 L -34.71428571428573,95.00051020408164 L -34.20000000000002,94.905 L -33.6857142857143,94.79479591836736 L -33.171428571428585,94.66989795918369 L -32.65714285714287,94.53030612244898 L -32.14285714285715,94.37602040816327 L -31.628571428571444,94.20704081632653 L -31.11428571428573,94.02336734693878 L -30.60000000000002,93.825 L -30.0857142857143,93.6119387755102 L -29.571428571428577,93.3841836734694 L -29.057142857142864,93.14173469387754 L -28.54285714285715,92.88459183673469 L -28.02857142857144,92.61275510204082 L -27.514285714285727,92.32622448979592 L -27.000000000000014,92.02499999999999 L -26.4857142857143,91.70908163265305 L -25.971428571428582,91.3784693877551 L -25.45714285714287,91.03316326530613 L -24.94285714285715,90.67316326530612 L -24.428571428571438,90.29846938775509 L -23.914285714285725,89.90908163265307 L -23.400000000000013,89.505 L -22.8857142857143,89.08622448979592 L -22.371428571428588,88.65275510204083 L -21.857142857142875,88.20459183673469 L -21.342857142857156,87.74173469387755 L -20.828571428571436,87.26418367346939 L -20.314285714285724,86.77193877551021 L -19.80000000000001,86.26500000000001 L -19.2857142857143,85.74336734693878 L -18.771428571428586,85.20704081632653 L -18.257142857142874,84.65602040816326 L -17.74285714285716,84.09030612244898 L -17.22857142857143,83.50989795918366 L -16.71428571428572,82.91479591836735 L -16.200000000000006,82.30499999999999 L -15.685714285714294,81.68051020408163 L -15.171428571428581,81.04132653061224 L -14.657142857142869,80.38744897959184 L -14.142857142857157,79.7188775510204 L -13.628571428571444,79.03561224489796 L -13.114285714285732,78.33765306122449 L -12.600000000000003,77.625 L -12.600000000000003,77.625 L -13.114285714285732,76.91234693877551 L -13.628571428571444,76.21438775510204 L -14.142857142857157,75.5311224489796 L -14.657142857142869,74.86255102040816 L -15.171428571428581,74.20867346938776 L -15.685714285714294,73.56948979591837 L -16.200000000000006,72.94500000000001 L -16.71428571428572,72.33520408163265 L -17.22857142857143,71.74010204081632 L -17.74285714285716,71.15969387755102 L -18.257142857142874,70.59397959183673 L -18.771428571428586,70.04295918367346 L -19.2857142857143,69.50663265306122 L -19.80000000000001,68.98499999999999 L -20.314285714285724,68.47806122448979 L -20.828571428571436,67.98581632653061 L -21.342857142857156,67.50826530612245 L -21.857142857142875,67.04540816326531 L -22.371428571428588,66.59724489795919 L -22.8857142857143,66.16377551020408 L -23.400000000000013,65.745 L -23.914285714285725,65.34091836734693 L -24.428571428571438,64.9515306122449 L -24.94285714285715,64.57683673469387 L -25.45714285714287,64.21683673469387 L -25.971428571428582,63.8715306122449 L -26.4857142857143,63.54091836734693 L -27.000000000000014,63.224999999999994 L -27.514285714285727,62.92377551020408 L -28.02857142857144,62.63724489795918 L -28.54285714285715,62.3654081632653 L -29.057142857142864,62.10826530612245 L -29.571428571428577,61.86581632653061 L -30.0857142857143,61.638061224489796 L -30.60000000000002,61.425 L -31.11428571428573,61.226632653061216 L -31.628571428571444,61.04295918367347 L -32.14285714285715,60.873979591836736 L -32.65714285714287,60.71969387755102 L -33.171428571428585,60.58010204081632 L -33.6857142857143,60.45520408163265 L -34.20000000000002,60.345 L -34.71428571428573,60.249489795918365 L -35.22857142857144,60.168673469387755 L -35.742857142857154,60.10255102040816 L -36.257142857142874,60.05112244897959 L -36.77142857142859,60.014387755102035 L -37.2857142857143,59.992346938775505 L -37.80000000000001,59.98499999999999 L -55.80000000000001,59.98499999999999 L -55.80000000000001,59.98499999999999 L -55.108800000000016,60.70499999999999 L -54.44640000000001,61.425 L -53.81280000000001,62.144999999999996 L -53.208000000000006,62.864999999999995 L -52.632000000000005,63.584999999999994 L -52.08480000000001,64.30499999999999 L -51.566400000000016,65.02499999999999 L -51.07680000000001,65.745 L -50.616000000000014,66.465 L -50.18400000000001,67.185 L -49.780800000000006,67.905 L -49.40640000000001,68.625 L -49.060800000000015,69.345 L -48.744000000000014,70.065 L -48.45600000000001,70.785 L -48.19680000000002,71.505 L -47.96640000000001,72.22500000000001 L -47.764800000000015,72.94500000000001 L -47.59200000000001,73.665 L -47.44800000000001,74.385 L -47.33280000000001,75.105 L -47.24640000000001,75.825 L -47.188800000000015,76.54499999999999 L -47.16000000000001,77.26500000000001 L -47.16000000000001,77.98499999999999 L -47.188800000000015,78.70500000000001 L -47.24640000000001,79.425 L -47.33280000000001,80.145 L -47.44800000000001,80.865 L -47.59200000000001,81.585 L -47.764800000000015,82.30499999999999 L -47.96640000000001,83.02499999999999 L -48.19680000000002,83.745 L -48.45600000000001,84.465 L -48.744000000000014,85.185 L -49.06080000000001,85.905 L -49.40640000000001,86.625 L -49.780800000000006,87.345 L -50.18400000000001,88.065 L -50.616000000000014,88.785 L -51.07680000000001,89.505 L -51.566400000000016,90.22500000000001 L -52.08480000000001,90.94500000000001 L -52.632000000000005,91.665 L -53.20800000000001,92.385 L -53.81280000000001,93.105 L -54.44640000000001,93.825 L -55.108800000000016,94.545 L -55.80000000000001,95.26500000000001" style="stroke:black;fill:none;stroke-width:2.0;stroke-linecap:round;stroke-linejoin:round;" /><path d="M -68.4,86.625 L -49.40640000000001,86.625" style="stroke:black;fill:none;stroke-width:2.0;stroke-linecap:round;stroke-linejoin:round;" /><path d="M -68.4,68.625 L -49.40640000000001,68.625" style="stroke:black;fill:none;stroke-width:2.0;stroke-linecap:round;stroke-linejoin:round;" /><path d="M -12.600000000000003,77.625 L 0.0,77.625" style="stroke:black;fill:none;stroke-width:2.0;stroke-linecap:round;stroke-linejoin:round;" /><path d="M -102.60000000000001,58.5 L -101.44673604034718,58.46301706950605 L -100.29821108967889,58.352220248818426 L -99.1591446833753,58.168064825839174 L -98.03421748962887,57.91130753470253 L -96.92805207557483,57.58300344619204 L -95.84519391217127,57.18450163222839 L -94.79009269588396,56.717439622243546 L -93.76708406392912,56.18373667422101 L -92.78037177821012,55.58558588805314 L -91.83401045115812,54.925445193623226 L -90.93188888445981,54.20602725064442 L -90.07771408913726,53.4302883017591 L -89.27499605264433,52.60141602470371 L -88.52703331557547,51.7228164334572 L -87.83689941725478,50.798099882199054 L -87.20743026590378,49.83106622958945 L -86.641212485286,48.825689224335036 L -86.14057278571538,47.786100176203085 L -85.7075684031043,46.71657097958354 L -85.3439786453401,45.62149655935858 L -85.05129758072718,44.50537681121366 L -84.83072789853989,43.372798110600826 L -84.68317596691443,42.22841446633828 L -84.60924810838762,41.0769283962898 L -84.60924810838762,39.92307160371021 L -84.68317596691443,38.771585533661735 L -84.83072789853989,37.627201889399174 L -85.05129758072718,36.49462318878634 L -85.3439786453401,35.37850344064142 L -85.7075684031043,34.28342902041646 L -86.14057278571538,33.213899823796915 L -86.641212485286,32.174310775664964 L -87.20743026590378,31.16893377041055 L -87.83689941725478,30.20190011780095 L -88.52703331557547,29.2771835665428 L -89.27499605264433,28.3985839752963 L -90.07771408913723,27.5697116982409 L -90.93188888445981,26.793972749355586 L -91.83401045115811,26.07455480637678 L -92.78037177821012,25.414414111946872 L -93.76708406392912,24.816263325778994 L -94.79009269588396,24.282560377756457 L -95.84519391217127,23.81549836777161 L -96.92805207557483,23.416996553807966 L -98.03421748962887,23.08869246529747 L -99.1591446833753,22.831935174160826 L -100.29821108967889,22.64777975118157 L -101.44673604034718,22.536982930493945 L -102.60000000000001,22.5 L -102.60000000000001,22.5 L -126.0,22.5 L -126.0,40.5 L -126.0,58.5 L -102.60000000000001,58.5" style="stroke:black;fill:none;stroke-width:2.0;stroke-linecap:round;stroke-linejoin:round;" /><path d="M -138.6,52.38 L -126.0,52.38" style="stroke:black;fill:none;stroke-width:2.0;stroke-linecap:round;stroke-linejoin:round;" /><path d="M -138.6,40.5 L -126.0,40.5" style="stroke:black;fill:none;stroke-width:2.0;stroke-linecap:round;stroke-linejoin:round;" /><path d="M -138.6,28.619999999999997 L -126.0,28.619999999999997" style="stroke:black;fill:none;stroke-width:2.0;stroke-linecap:round;stroke-linejoin:round;" /><path d="M -84.60000000000001,40.5 L -72.0,40.5" style="stroke:black;fill:none;stroke-width:2.0;stroke-linecap:round;stroke-linejoin:round;" /><path d="M -174.6,31.5 L -173.44673604034716,31.463017069506055 L -172.2982110896789,31.35222024881843 L -171.1591446833753,31.168064825839174 L -170.03421748962887,30.91130753470253 L -168.9280520755748,30.583003446192034 L -167.84519391217128,30.18450163222839 L -166.79009269588394,29.717439622243543 L -165.76708406392913,29.18373667422101 L -164.7803717782101,28.58558588805313 L -163.83401045115812,27.925445193623222 L -162.9318888844598,27.206027250644418 L -162.07771408913723,26.4302883017591 L -161.27499605264433,25.601416024703703 L -160.52703331557547,24.7228164334572 L -159.8368994172548,23.798099882199054 L -159.20743026590378,22.83106622958945 L -158.641212485286,21.825689224335036 L -158.14057278571536,20.786100176203092 L -157.70756840310432,19.71657097958354 L -157.34397864534012,18.621496559358587 L -157.05129758072718,17.505376811213658 L -156.8307278985399,16.372798110600826 L -156.6831759669144,15.228414466338274 L -156.60924810838762,14.076928396289794 L -156.60924810838762,12.92307160371021 L -156.6831759669144,11.77158553366173 L -156.8307278985399,10.627201889399178 L -157.05129758072718,9.494623188786342 L -157.34397864534012,8.378503440641417 L -157.70756840310432,7.283429020416464 L -158.14057278571536,6.213899823796913 L -158.641212485286,5.174310775664967 L -159.20743026590378,4.168933770410549 L -159.8368994172548,3.20190011780095 L -160.52703331557547,2.2771835665427975 L -161.27499605264433,1.3985839752963019 L -162.07771408913723,0.5697116982409052 L -162.9318888844598,-0.20602725064441563 L -163.83401045115812,-0.9254451936232191 L -164.7803717782101,-1.5855858880531268 L -165.76708406392913,-2.1837366742210054 L -166.79009269588394,-2.7174396222435444 L -167.84519391217128,-3.1845016322283897 L -168.9280520755748,-3.5830034461920355 L -170.03421748962887,-3.9113075347025283 L -171.1591446833753,-4.168064825839176 L -172.2982110896789,-4.352220248818429 L -173.44673604034716,-4.463017069506054 L -174.6,-4.5 L -174.6,-4.5 L -198.0,-4.5 L -198.0,13.5 L -198.0,31.5 L -174.6,31.5" style="stroke:black;fill:none;stroke-width:2.0;stroke-linecap:round;stroke-linejoin:round;" /><path d="M -210.6,22.5 L -198.0,22.5" style="stroke:black;fill:none;stroke-width:2.0;stroke-linecap:round;stroke-linejoin:round;" /><path d="M -210.6,4.5 L -198.0,4.5" style="stroke:black;fill:none;stroke-width:2.0;stroke-linecap:round;stroke-linejoin:round;" /><path d="M -147.96,13.5 L -144.0,13.5" style="stroke:black;fill:none;stroke-width:2.0;stroke-linecap:round;stroke-linejoin:round;" /><path d="M -138.6,28.619999999999997 L -144.0,28.619999999999997 L -144.0,13.5" style="stroke:black;fill:none;stroke-width:2;stroke-linecap:round;stroke-linejoin:round;" /><path d="M -138.6,28.619999999999997 L -144.0,28.619999999999997 L -144.0,13.5" style="stroke:black;fill:none;stroke-width:2;stroke-linecap:round;stroke-linejoin:round;" /><path d="M -68.4,68.625 L -72.0,68.625 L -72.0,40.5" style="stroke:black;fill:none;stroke-width:2;stroke-linecap:round;stroke-linejoin:round;" /><path d="M -68.4,68.625 L -72.0,68.625 L -72.0,40.5" style="stroke:black;fill:none;stroke-width:2;stroke-linecap:round;stroke-linejoin:round;" /><path d="M -102.60000000000001,132.75 L -101.44673604034718,132.71301706950607 L -100.29821108967889,132.60222024881844 L -99.1591446833753,132.41806482583917 L -98.03421748962887,132.16130753470253 L -96.92805207557483,131.83300344619204 L -95.84519391217127,131.4345016322284 L -94.79009269588396,130.96743962224355 L -93.76708406392912,130.433736674221 L -92.78037177821012,129.83558588805315 L -91.83401045115812,129.1754451936232 L -90.93188888445981,128.4560272506444 L -90.07771408913726,127.68028830175909 L -89.27499605264433,126.85141602470371 L -88.52703331557547,125.9728164334572 L -87.83689941725478,125.04809988219905 L -87.20743026590378,124.08106622958945 L -86.641212485286,123.07568922433504 L -86.14057278571538,122.03610017620309 L -85.7075684031043,120.96657097958354 L -85.3439786453401,119.87149655935858 L -85.05129758072718,118.75537681121367 L -84.83072789853989,117.62279811060083 L -84.68317596691443,116.47841446633828 L -84.60924810838762,115.3269283962898 L -84.60924810838762,114.1730716037102 L -84.68317596691443,113.02158553366172 L -84.83072789853989,111.87720188939917 L -85.05129758072718,110.74462318878633 L -85.3439786453401,109.62850344064142 L -85.7075684031043,108.53342902041646 L -86.14057278571538,107.46389982379691 L -86.641212485286,106.42431077566496 L -87.20743026590378,105.41893377041055 L -87.83689941725478,104.45190011780095 L -88.52703331557547,103.5271835665428 L -89.27499605264433,102.64858397529629 L -90.07771408913723,101.81971169824091 L -90.93188888445981,101.04397274935558 L -91.83401045115811,100.32455480637678 L -92.78037177821012,99.66441411194688 L -93.76708406392912,99.06626332577899 L -94.79009269588396,98.53256037775645 L -95.84519391217127,98.06549836777161 L -96.92805207557483,97.66699655380796 L -98.03421748962887,97.33869246529747 L -99.1591446833753,97.08193517416082 L -100.29821108967889,96.89777975118156 L -101.44673604034718,96.78698293049393 L -102.60000000000001,96.75 L -102.60000000000001,96.75 L -126.0,96.75 L -126.0,114.75 L -126.0,132.75 L -102.60000000000001,132.75" style="stroke:black;fill:none;stroke-width:2.0;stroke-linecap:round;stroke-linejoin:round;" /><path d="M -138.6,123.75 L -126.0,123.75" style="stroke:black;fill:none;stroke-width:2.0;stroke-linecap:round;stroke-linejoin:round;" /><path d="M -138.6,105.75 L -126.0,105.75" style="stroke:black;fill:none;stroke-width:2.0;stroke-linecap:round;stroke-linejoin:round;" /><path d="M -84.60000000000001,114.75 L -72.0,114.75" style="stroke:black;fill:none;stroke-width:2.0;stroke-linecap:round;stroke-linejoin:round;" /><path d="M -174.6,112.5 L -173.44673604034716,112.46301706950607 L -172.2982110896789,112.35222024881844 L -171.1591446833753,112.16806482583918 L -170.03421748962887,111.91130753470253 L -168.9280520755748,111.58300344619204 L -167.84519391217128,111.18450163222839 L -166.79009269588394,110.71743962224355 L -165.76708406392913,110.18373667422101 L -164.7803717782101,109.58558588805313 L -163.83401045115812,108.92544519362322 L -162.9318888844598,108.20602725064442 L -162.07771408913723,107.43028830175909 L -161.27499605264433,106.60141602470371 L -160.52703331557547,105.7228164334572 L -159.8368994172548,104.79809988219905 L -159.20743026590378,103.83106622958945 L -158.641212485286,102.82568922433504 L -158.14057278571536,101.78610017620309 L -157.70756840310432,100.71657097958354 L -157.34397864534012,99.62149655935858 L -157.05129758072718,98.50537681121367 L -156.8307278985399,97.37279811060083 L -156.6831759669144,96.22841446633828 L -156.60924810838762,95.0769283962898 L -156.60924810838762,93.9230716037102 L -156.6831759669144,92.77158553366172 L -156.8307278985399,91.62720188939917 L -157.05129758072718,90.49462318878633 L -157.34397864534012,89.37850344064142 L -157.70756840310432,88.28342902041646 L -158.14057278571536,87.21389982379691 L -158.641212485286,86.17431077566496 L -159.20743026590378,85.16893377041055 L -159.8368994172548,84.20190011780095 L -160.52703331557547,83.2771835665428 L -161.27499605264433,82.39858397529629 L -162.07771408913723,81.56971169824091 L -162.9318888844598,80.79397274935558 L -163.83401045115812,80.07455480637678 L -164.7803717782101,79.41441411194688 L -165.76708406392913,78.81626332577899 L -166.79009269588394,78.28256037775645 L -167.84519391217128,77.81549836777161 L -168.9280520755748,77.41699655380796 L -170.03421748962887,77.08869246529747 L -171.1591446833753,76.83193517416082 L -172.2982110896789,76.64777975118156 L -173.44673604034716,76.53698293049393 L -174.6,76.5 L -174.6,76.5 L -198.0,76.5 L -198.0,94.5 L -198.0,112.5 L -174.6,112.5" style="stroke:black;fill:none;stroke-width:2.0;stroke-linecap:round;stroke-linejoin:round;" /><path d="M -210.6,103.5 L -198.0,103.5" style="stroke:black;fill:none;stroke-width:2.0;stroke-linecap:round;stroke-linejoin:round;" /><path d="M -210.6,85.5 L -198.0,85.5" style="stroke:black;fill:none;stroke-width:2.0;stroke-linecap:round;stroke-linejoin:round;" /><path d="M -156.6,94.5 L -144.0,94.5" style="stroke:black;fill:none;stroke-width:2.0;stroke-linecap:round;stroke-linejoin:round;" /><path d="M -138.6,105.75 L -144.0,105.75 L -144.0,94.5" style="stroke:black;fill:none;stroke-width:2;stroke-linecap:round;stroke-linejoin:round;" /><path d="M -138.6,105.75 L -144.0,105.75 L -144.0,94.5" style="stroke:black;fill:none;stroke-width:2;stroke-linecap:round;stroke-linejoin:round;" /><path d="M -216.0,135.0 L -216.0,135.0 L -196.02,135.0 M -163.98,135.0 L -144.0,135.0 L -144.0,135.0" style="stroke:black;fill:none;stroke-width:2.0;stroke-linecap:round;stroke-linejoin:round;" /><path d="M -196.02,117.0 L -172.62,135.0 L -196.02,153.0 L -196.02,117.0" style="stroke:black;fill:none;stroke-width:2.0;stroke-linecap:round;stroke-linejoin:round;" /><path d="M -138.6,123.75 L -144.0,123.75 L -144.0,135.0" style="stroke:black;fill:none;stroke-width:2;stroke-linecap:round;stroke-linejoin:round;" /><path d="M -138.6,123.75 L -144.0,123.75 L -144.0,135.0" style="stroke:black;fill:none;stroke-width:2;stroke-linecap:round;stroke-linejoin:round;" /><path d="M -68.4,86.625 L -72.0,86.625 L -72.0,114.75" style="stroke:black;fill:none;stroke-width:2;stroke-linecap:round;stroke-linejoin:round;" /><path d="M -68.4,86.625 L -72.0,86.625 L -72.0,114.75" style="stroke:black;fill:none;stroke-width:2;stroke-linecap:round;stroke-linejoin:round;" /><text x="3.600000000000003" y="72.02499999999999" fill="black" font-size="14.0" font-family="sans" text-anchor="start"><tspan x="3.600000000000003" dy="14.0">TopEvent</tspan></text><text x="3.600000000000003" y="72.02499999999999" fill="black" font-size="14.0" font-family="sans" text-anchor="start"><tspan x="3.600000000000003" dy="14.0">TopEvent</tspan></text><text x="-142.20000000000002" y="34.9" fill="black" font-size="14.0" font-family="sans" text-anchor="end"><tspan x="-142.20000000000002" dy="14.0">states_Hover</tspan></text><text x="-142.20000000000002" y="46.78" fill="black" font-size="14.0" font-family="sans" text-anchor="end"><tspan x="-142.20000000000002" dy="14.0">modes_POSCTL</tspan></text><text x="-142.20000000000002" y="34.9" fill="black" font-size="14.0" font-family="sans" text-anchor="end"><tspan x="-142.20000000000002" dy="14.0">states_Hover</tspan></text><text x="-142.20000000000002" y="46.78" fill="black" font-size="14.0" font-family="sans" text-anchor="end"><tspan x="-142.20000000000002" dy="14.0">modes_POSCTL</tspan></text><text x="-214.20000000000002" y="-1.0999999999999996" fill="black" font-size="14.0" font-family="sans" text-anchor="end"><tspan x="-214.20000000000002" dy="14.0">geofence_ON</tspan></text><text x="-214.20000000000002" y="16.9" fill="black" font-size="14.0" font-family="sans" text-anchor="end"><tspan x="-214.20000000000002" dy="14.0">geofenceAction_Warning</tspan></text><text x="-214.20000000000002" y="-1.0999999999999996" fill="black" font-size="14.0" font-family="sans" text-anchor="end"><tspan x="-214.20000000000002" dy="14.0">geofence_ON</tspan></text><text x="-214.20000000000002" y="16.9" fill="black" font-size="14.0" font-family="sans" text-anchor="end"><tspan x="-214.20000000000002" dy="14.0">geofenceAction_Warning</tspan></text><text x="-214.20000000000002" y="79.89999999999999" fill="black" font-size="14.0" font-family="sans" text-anchor="end"><tspan x="-214.20000000000002" dy="14.0">geofence_ON</tspan></text><text x="-214.20000000000002" y="97.89999999999999" fill="black" font-size="14.0" font-family="sans" text-anchor="end"><tspan x="-214.20000000000002" dy="14.0">geofenceAction_Warning</tspan></text><text x="-214.20000000000002" y="79.89999999999999" fill="black" font-size="14.0" font-family="sans" text-anchor="end"><tspan x="-214.20000000000002" dy="14.0">geofence_ON</tspan></text><text x="-214.20000000000002" y="97.89999999999999" fill="black" font-size="14.0" font-family="sans" text-anchor="end"><tspan x="-214.20000000000002" dy="14.0">geofenceAction_Warning</tspan></text><text x="-219.6" y="129.4" fill="black" font-size="14.0" font-family="sans" text-anchor="end"><tspan x="-219.6" dy="14.0">states_Hover</tspan></text><text x="-219.6" y="129.4" fill="black" font-size="14.0" font-family="sans" text-anchor="end"><tspan x="-219.6" dy="14.0">states_Hover</tspan></text></svg>