<svg xmlns="http://www.w3.org/2000/svg" xml:lang="en" height="96.5pt" width="350.38400000000007pt" viewBox="-281.53600000000006 -9.1 350.38400000000007 96.5"><circle cx="-80.28" cy="13.5" r="4.32" style="stroke:black;fill:none;stroke-width:2.0;" /><path d="M -30.6,72.0 L -29.446736040347172,71.96301706950605 L -28.298211089678894,71.85222024881843 L -27.1591446833753,71.66806482583918 L -26.03421748962887,71.41130753470253 L -24.928052075574826,71.08300344619204 L -23.84519391217127,70.68450163222839 L -22.790092695883956,70.21743962224355 L -21.767084063929126,69.68373667422101 L -20.780371778210124,69.08558588805313 L -19.83401045115812,68.42544519362322 L -18.931888884459806,67.70602725064442 L -18.077714089137253,66.93028830175909 L -17.274996052644326,66.10141602470371 L -16.527033315575473,65.2228164334572 L -15.83689941725479,64.29809988219905 L -15.207430265903778,63.33106622958945 L -14.641212485286,62.325689224335036 L -14.140572785715374,61.286100176203085 L -13.70756840310431,60.21657097958354 L -13.343978645340105,59.12149655935858 L -13.05129758072718,58.00537681121366 L -12.830727898539898,56.872798110600826 L -12.683175966914435,55.72841446633828 L -12.609248108387625,54.5769283962898 L -12.609248108387625,53.42307160371021 L -12.683175966914435,52.271585533661735 L -12.830727898539898,51.127201889399174 L -13.05129758072718,49.99462318878634 L -13.343978645340105,48.87850344064142 L -13.70756840310431,47.78342902041646 L -14.140572785715374,46.713899823796915 L -14.641212485286,45.674310775664964 L -15.207430265903778,44.66893377041055 L -15.83689941725479,43.701900117800946 L -16.527033315575473,42.7771835665428 L -17.274996052644326,41.898583975296305 L -18.077714089137245,41.0697116982409 L -18.931888884459806,40.29397274935558 L -19.834010451158107,39.57455480637678 L -20.780371778210124,38.91441411194687 L -21.767084063929126,38.31626332577899 L -22.790092695883956,37.782560377756454 L -23.84519391217127,37.31549836777161 L -24.928052075574826,36.91699655380796 L -26.03421748962887,36.58869246529747 L -27.1591446833753,36.331935174160826 L -28.298211089678887,36.147779751181574 L -29.446736040347165,36.03698293049395 L -30.6,36.0 L -30.6,36.0 L -54.0,36.0 L -54.0,54.0 L -54.0,72.0 L -30.6,72.0" style="stroke:black;fill:none;stroke-width:2.0;stroke-linecap:round;stroke-linejoin:round;" /><path d="M -66.60000000000001,75.60000000000001 L -54.0,75.60000000000001" style="stroke:black;fill:none;stroke-width:2.0;stroke-linecap:round;stroke-linejoin:round;" /><path d="M -66.60000000000001,61.199999999999996 L -54.0,61.199999999999996" style="stroke:black;fill:none;stroke-width:2.0;stroke-linecap:round;stroke-linejoin:round;" /><path d="M -66.60000000000001,46.800000000000004 L -54.0,46.800000000000004" style="stroke:black;fill:none;stroke-width:2.0;stroke-linecap:round;stroke-linejoin:round;" /><path d="M -66.60000000000001,32.4 L -54.0,32.4" style="stroke:black;fill:none;stroke-width:2.0;stroke-linecap:round;stroke-linejoin:round;" /><path d="M -54.0,25.2 L -54.0,82.8" style="stroke:black;fill:none;stroke-width:2.0;stroke-linecap:round;stroke-linejoin:round;" /><path d="M -12.600000000000003,54.0 L 0.0,54.0" style="stroke:black;fill:none;stroke-width:2.0;stroke-linecap:round;stroke-linejoin:round;" /><path d="M -102.60000000000001,31.5 L -101.44673604034718,31.463017069506055 L -100.29821108967889,31.35222024881843 L -99.1591446833753,31.168064825839174 L -98.03421748962887,30.91130753470253 L -96.92805207557483,30.583003446192034 L -95.84519391217127,30.18450163222839 L -94.79009269588396,29.717439622243543 L -93.76708406392912,29.18373667422101 L -92.78037177821012,28.58558588805313 L -91.83401045115812,27.925445193623222 L -90.93188888445981,27.206027250644418 L -90.07771408913726,26.4302883017591 L -89.27499605264433,25.601416024703703 L -88.52703331557547,24.7228164334572 L -87.83689941725478,23.798099882199054 L -87.20743026590378,22.83106622958945 L -86.641212485286,21.825689224335036 L -86.14057278571538,20.786100176203092 L -85.7075684031043,19.71657097958354 L -85.3439786453401,18.621496559358587 L -85.05129758072718,17.505376811213658 L -84.83072789853989,16.372798110600826 L -84.68317596691443,15.228414466338274 L -84.60924810838762,14.076928396289794 L -84.60924810838762,12.92307160371021 L -84.68317596691443,11.77158553366173 L -84.83072789853989,10.627201889399178 L -85.05129758072718,9.494623188786342 L -85.3439786453401,8.378503440641417 L -85.7075684031043,7.283429020416464 L -86.14057278571538,6.213899823796913 L -86.641212485286,5.174310775664967 L -87.20743026590378,4.168933770410549 L -87.83689941725478,3.20190011780095 L -88.52703331557547,2.2771835665427975 L -89.27499605264433,1.3985839752963019 L -90.07771408913723,0.5697116982409052 L -90.93188888445981,-0.20602725064441563 L -91.83401045115811,-0.9254451936232191 L -92.78037177821012,-1.5855858880531268 L -93.76708406392912,-2.1837366742210054 L -94.79009269588396,-2.7174396222435444 L -95.84519391217127,-3.1845016322283897 L -96.92805207557483,-3.5830034461920355 L -98.03421748962887,-3.9113075347025283 L -99.1591446833753,-4.168064825839176 L -100.29821108967889,-4.352220248818429 L -101.44673604034718,-4.463017069506054 L -102.60000000000001,-4.5 L -102.60000000000001,-4.5 L -126.0,-4.5 L -126.0,13.5 L -126.0,31.5 L -102.60000000000001,31.5" style="stroke:black;fill:none;stroke-width:2.0;stroke-linecap:round;stroke-linejoin:round;" /><path d="M -138.6,22.5 L -126.0,22.5" style="stroke:black;fill:none;stroke-width:2.0;stroke-linecap:round;stroke-linejoin:round;" /><path d="M -138.6,4.5 L -126.0,4.5" style="stroke:black;fill:none;stroke-width:2.0;stroke-linecap:round;stroke-linejoin:round;" /><path d="M -75.96000000000001,13.5 L -72.0,13.5" style="stroke:black;fill:none;stroke-width:2.0;stroke-linecap:round;stroke-linejoin:round;" /><path d="M -66.60000000000001,32.4 L -72.0,32.4 L -72.0,13.5" style="stroke:black;fill:none;stroke-width:2;stroke-linecap:round;stroke-linejoin:round;" /><path d="M -66.60000000000001,32.4 L -72.0,32.4 L -72.0,13.5" style="stroke:black;fill:none;stroke-width:2;stroke-linecap:round;stroke-linejoin:round;" /><text x="3.600000000000003" y="48.4" fill="black" font-size="14.0" font-family="sans" text-anchor="start"><tspan x="3.600000000000003" dy="14.0">TopEvent</tspan></text><text x="-70.2" y="41.2" fill="black" font-size="14.0" font-family="sans" text-anchor="end"><tspan x="-70.2" dy="14.0">states_Flying</tspan></text><text x="-70.2" y="55.599999999999994" fill="black" font-size="14.0" font-family="sans" text-anchor="end"><tspan x="-70.2" dy="14.0">modes_STABILIZED</tspan></text><text x="-70.2" y="70.0" fill="black" font-size="14.0" font-family="sans" text-anchor="end"><tspan x="-70.2" dy="14.0">throttle_435</tspan></text><text x="3.600000000000003" y="48.4" fill="black" font-size="14.0" font-family="sans" text-anchor="start"><tspan x="3.600000000000003" dy="14.0">TopEvent</tspan></text><text x="-70.2" y="41.2" fill="black" font-size="14.0" font-family="sans" text-anchor="end"><tspan x="-70.2" dy="14.0">states_Flying</tspan></text><text x="-70.2" y="55.599999999999994" fill="black" font-size="14.0" font-family="sans" text-anchor="end"><tspan x="-70.2" dy="14.0">modes_STABILIZED</tspan></text><text x="-70.2" y="70.0" fill="black" font-size="14.0" font-family="sans" text-anchor="end"><tspan x="-70.2" dy="14.0">throttle_435</tspan></text><text x="-142.20000000000002" y="-1.0999999999999996" fill="black" font-size="14.0" font-family="sans" text-anchor="end"><tspan x="-142.20000000000002" dy="14.0">geofence_ON</tspan></text><text x="-142.20000000000002" y="16.9" fill="black" font-size="14.0" font-family="sans" text-anchor="end"><tspan x="-142.20000000000002" dy="14.0">geofenceAction_OFF</tspan></text><text x="-142.20000000000002" y="-1.0999999999999996" fill="black" font-size="14.0" font-family="sans" text-anchor="end"><tspan x="-142.20000000000002" dy="14.0">geofence_ON</tspan></text><text x="-142.20000000000002" y="16.9" fill="black" font-size="14.0" font-family="sans" text-anchor="end"><tspan x="-142.20000000000002" dy="14.0">geofenceAction_OFF</tspan></text></svg>