<svg xmlns="http://www.w3.org/2000/svg" xml:lang="en" height="220.70000000000005pt" width="447.75200000000007pt" viewBox="-378.90400000000005 -9.1 447.75200000000007 220.70000000000005"><circle cx="-168.29999999999998" cy="54.0" r="4.32" style="stroke:black;fill:none;stroke-width:2.0;" /><circle cx="-168.29999999999998" cy="81.0" r="4.32" style="stroke:black;fill:none;stroke-width:2.0;" /><circle cx="-168.29999999999998" cy="162.0" r="4.32" style="stroke:black;fill:none;stroke-width:2.0;" /><circle cx="-168.29999999999998" cy="189.0" r="4.32" style="stroke:black;fill:none;stroke-width:2.0;" /><path d="M -55.80000000000001,118.89000000000001 L -37.80000000000001,118.89000000000001 L -37.2857142857143,118.88265306122449 L -36.77142857142859,118.86061224489796 L -36.257142857142874,118.82387755102042 L -35.742857142857154,118.77244897959184 L -35.22857142857144,118.70632653061224 L -34.71428571428573,118.62551020408164 L -34.20000000000002,118.53 L -33.6857142857143,118.41979591836736 L -33.171428571428585,118.29489795918369 L -32.65714285714287,118.15530612244898 L -32.14285714285715,118.00102040816327 L -31.628571428571444,117.83204081632653 L -31.11428571428573,117.64836734693878 L -30.60000000000002,117.45 L -30.0857142857143,117.2369387755102 L -29.571428571428577,117.0091836734694 L -29.057142857142864,116.76673469387754 L -28.54285714285715,116.50959183673469 L -28.02857142857144,116.23775510204082 L -27.514285714285727,115.95122448979592 L -27.000000000000014,115.64999999999999 L -26.4857142857143,115.33408163265305 L -25.971428571428582,115.0034693877551 L -25.45714285714287,114.65816326530613 L -24.94285714285715,114.29816326530612 L -24.428571428571438,113.92346938775509 L -23.914285714285725,113.53408163265307 L -23.400000000000013,113.13 L -22.8857142857143,112.71122448979592 L -22.371428571428588,112.27775510204083 L -21.857142857142875,111.82959183673469 L -21.342857142857156,111.36673469387755 L -20.828571428571436,110.88918367346939 L -20.314285714285724,110.39693877551021 L -19.80000000000001,109.89000000000001 L -19.2857142857143,109.36836734693878 L -18.771428571428586,108.83204081632653 L -18.257142857142874,108.28102040816326 L -17.74285714285716,107.71530612244898 L -17.22857142857143,107.13489795918366 L -16.71428571428572,106.53979591836735 L -16.200000000000006,105.92999999999999 L -15.685714285714294,105.30551020408163 L -15.171428571428581,104.66632653061224 L -14.657142857142869,104.01244897959184 L -14.142857142857157,103.3438775510204 L -13.628571428571444,102.66061224489796 L -13.114285714285732,101.96265306122449 L -12.600000000000003,101.25 L -12.600000000000003,101.25 L -13.114285714285732,100.53734693877551 L -13.628571428571444,99.83938775510204 L -14.142857142857157,99.1561224489796 L -14.657142857142869,98.48755102040816 L -15.171428571428581,97.83367346938776 L -15.685714285714294,97.19448979591837 L -16.200000000000006,96.57000000000001 L -16.71428571428572,95.96020408163265 L -17.22857142857143,95.36510204081634 L -17.74285714285716,94.78469387755102 L -18.257142857142874,94.21897959183674 L -18.771428571428586,93.66795918367347 L -19.2857142857143,93.13163265306122 L -19.80000000000001,92.60999999999999 L -20.314285714285724,92.10306122448979 L -20.828571428571436,91.61081632653061 L -21.342857142857156,91.13326530612245 L -21.857142857142875,90.67040816326531 L -22.371428571428588,90.22224489795917 L -22.8857142857143,89.78877551020408 L -23.400000000000013,89.37 L -23.914285714285725,88.96591836734693 L -24.428571428571438,88.57653061224491 L -24.94285714285715,88.20183673469388 L -25.45714285714287,87.84183673469387 L -25.971428571428582,87.4965306122449 L -26.4857142857143,87.16591836734695 L -27.000000000000014,86.85000000000001 L -27.514285714285727,86.54877551020408 L -28.02857142857144,86.26224489795918 L -28.54285714285715,85.99040816326531 L -29.057142857142864,85.73326530612246 L -29.571428571428577,85.4908163265306 L -30.0857142857143,85.2630612244898 L -30.60000000000002,85.05 L -31.11428571428573,84.85163265306122 L -31.628571428571444,84.66795918367347 L -32.14285714285715,84.49897959183673 L -32.65714285714287,84.34469387755102 L -33.171428571428585,84.20510204081631 L -33.6857142857143,84.08020408163264 L -34.20000000000002,83.97 L -34.71428571428573,83.87448979591836 L -35.22857142857144,83.79367346938776 L -35.742857142857154,83.72755102040816 L -36.257142857142874,83.67612244897958 L -36.77142857142859,83.63938775510204 L -37.2857142857143,83.61734693877551 L -37.80000000000001,83.60999999999999 L -55.80000000000001,83.60999999999999 L -55.80000000000001,83.60999999999999 L -55.108800000000016,84.33 L -54.44640000000001,85.05 L -53.81280000000001,85.77 L -53.208000000000006,86.49 L -52.632000000000005,87.21 L -52.08480000000001,87.92999999999999 L -51.566400000000016,88.64999999999999 L -51.07680000000001,89.37 L -50.616000000000014,90.09 L -50.18400000000001,90.81 L -49.780800000000006,91.53 L -49.40640000000001,92.25 L -49.060800000000015,92.97 L -48.744000000000014,93.69 L -48.45600000000001,94.41 L -48.19680000000002,95.13 L -47.96640000000001,95.85000000000001 L -47.764800000000015,96.57000000000001 L -47.59200000000001,97.29 L -47.44800000000001,98.01 L -47.33280000000001,98.73 L -47.24640000000001,99.45 L -47.188800000000015,100.16999999999999 L -47.16000000000001,100.89000000000001 L -47.16000000000001,101.60999999999999 L -47.188800000000015,102.33000000000001 L -47.24640000000001,103.05 L -47.33280000000001,103.77 L -47.44800000000001,104.49 L -47.59200000000001,105.21 L -47.764800000000015,105.92999999999999 L -47.96640000000001,106.64999999999999 L -48.19680000000002,107.37 L -48.45600000000001,108.09 L -48.744000000000014,108.81 L -49.06080000000001,109.53 L -49.40640000000001,110.25 L -49.780800000000006,110.97 L -50.18400000000001,111.69 L -50.616000000000014,112.41 L -51.07680000000001,113.13 L -51.566400000000016,113.85000000000001 L -52.08480000000001,114.57000000000001 L -52.632000000000005,115.29 L -53.20800000000001,116.01 L -53.81280000000001,116.73 L -54.44640000000001,117.45 L -55.108800000000016,118.17 L -55.80000000000001,118.89000000000001" style="stroke:black;fill:none;stroke-width:2.0;stroke-linecap:round;stroke-linejoin:round;" /><path d="M -68.4,110.25 L -49.40640000000001,110.25" style="stroke:black;fill:none;stroke-width:2.0;stroke-linecap:round;stroke-linejoin:round;" /><path d="M -68.4,92.25 L -49.40640000000001,92.25" style="stroke:black;fill:none;stroke-width:2.0;stroke-linecap:round;stroke-linejoin:round;" /><path d="M -12.600000000000003,101.25 L 0.0,101.25" style="stroke:black;fill:none;stroke-width:2.0;stroke-linecap:round;stroke-linejoin:round;" /><path d="M -102.60000000000001,65.25 L -101.44673604034718,65.21301706950605 L -100.29821108967889,65.10222024881843 L -99.1591446833753,64.91806482583918 L -98.03421748962887,64.66130753470253 L -96.92805207557483,64.33300344619204 L -95.84519391217127,63.93450163222839 L -94.79009269588396,63.467439622243546 L -93.76708406392912,62.93373667422101 L -92.78037177821012,62.33558588805314 L -91.83401045115812,61.675445193623226 L -90.93188888445981,60.95602725064442 L -90.07771408913726,60.1802883017591 L -89.27499605264433,59.35141602470371 L -88.52703331557547,58.4728164334572 L -87.83689941725478,57.548099882199054 L -87.20743026590378,56.58106622958945 L -86.641212485286,55.575689224335036 L -86.14057278571538,54.536100176203085 L -85.7075684031043,53.46657097958354 L -85.3439786453401,52.37149655935858 L -85.05129758072718,51.25537681121366 L -84.83072789853989,50.122798110600826 L -84.68317596691443,48.97841446633828 L -84.60924810838762,47.8269283962898 L -84.60924810838762,46.67307160371021 L -84.68317596691443,45.521585533661735 L -84.83072789853989,44.377201889399174 L -85.05129758072718,43.24462318878634 L -85.3439786453401,42.12850344064142 L -85.7075684031043,41.03342902041646 L -86.14057278571538,39.963899823796915 L -86.641212485286,38.924310775664964 L -87.20743026590378,37.91893377041055 L -87.83689941725478,36.951900117800946 L -88.52703331557547,36.0271835665428 L -89.27499605264433,35.148583975296305 L -90.07771408913723,34.3197116982409 L -90.93188888445981,33.54397274935558 L -91.83401045115811,32.82455480637678 L -92.78037177821012,32.16441411194687 L -93.76708406392912,31.566263325778994 L -94.79009269588396,31.032560377756457 L -95.84519391217127,30.56549836777161 L -96.92805207557483,30.166996553807966 L -98.03421748962887,29.83869246529747 L -99.1591446833753,29.581935174160826 L -100.29821108967889,29.39777975118157 L -101.44673604034718,29.286982930493945 L -102.60000000000001,29.25 L -102.60000000000001,29.25 L -126.0,29.25 L -126.0,47.25 L -126.0,65.25 L -102.60000000000001,65.25" style="stroke:black;fill:none;stroke-width:2.0;stroke-linecap:round;stroke-linejoin:round;" /><path d="M -138.6,59.13 L -126.0,59.13" style="stroke:black;fill:none;stroke-width:2.0;stroke-linecap:round;stroke-linejoin:round;" /><path d="M -138.6,47.25 L -126.0,47.25" style="stroke:black;fill:none;stroke-width:2.0;stroke-linecap:round;stroke-linejoin:round;" /><path d="M -138.6,35.37 L -126.0,35.37" style="stroke:black;fill:none;stroke-width:2.0;stroke-linecap:round;stroke-linejoin:round;" /><path d="M -84.60000000000001,47.25 L -72.0,47.25" style="stroke:black;fill:none;stroke-width:2.0;stroke-linecap:round;stroke-linejoin:round;" /><path d="M -174.6,31.5 L -173.44673604034716,31.463017069506055 L -172.2982110896789,31.35222024881843 L -171.1591446833753,31.168064825839174 L -170.03421748962887,30.91130753470253 L -168.9280520755748,30.583003446192034 L -167.84519391217128,30.18450163222839 L -166.79009269588394,29.717439622243543 L -165.76708406392913,29.18373667422101 L -164.7803717782101,28.58558588805313 L -163.83401045115812,27.925445193623222 L -162.9318888844598,27.206027250644418 L -162.07771408913723,26.4302883017591 L -161.27499605264433,25.601416024703703 L -160.52703331557547,24.7228164334572 L -159.8368994172548,23.798099882199054 L -159.20743026590378,22.83106622958945 L -158.641212485286,21.825689224335036 L -158.14057278571536,20.786100176203092 L -157.70756840310432,19.71657097958354 L -157.34397864534012,18.621496559358587 L -157.05129758072718,17.505376811213658 L -156.8307278985399,16.372798110600826 L -156.6831759669144,15.228414466338274 L -156.60924810838762,14.076928396289794 L -156.60924810838762,12.92307160371021 L -156.6831759669144,11.77158553366173 L -156.8307278985399,10.627201889399178 L -157.05129758072718,9.494623188786342 L -157.34397864534012,8.378503440641417 L -157.70756840310432,7.283429020416464 L -158.14057278571536,6.213899823796913 L -158.641212485286,5.174310775664967 L -159.20743026590378,4.168933770410549 L -159.8368994172548,3.20190011780095 L -160.52703331557547,2.2771835665427975 L -161.27499605264433,1.3985839752963019 L -162.07771408913723,0.5697116982409052 L -162.9318888844598,-0.20602725064441563 L -163.83401045115812,-0.9254451936232191 L -164.7803717782101,-1.5855858880531268 L -165.76708406392913,-2.1837366742210054 L -166.79009269588394,-2.7174396222435444 L -167.84519391217128,-3.1845016322283897 L -168.9280520755748,-3.5830034461920355 L -170.03421748962887,-3.9113075347025283 L -171.1591446833753,-4.168064825839176 L -172.2982110896789,-4.352220248818429 L -173.44673604034716,-4.463017069506054 L -174.6,-4.5 L -174.6,-4.5 L -198.0,-4.5 L -198.0,13.5 L -198.0,31.5 L -174.6,31.5" style="stroke:black;fill:none;stroke-width:2.0;stroke-linecap:round;stroke-linejoin:round;" /><path d="M -210.6,22.5 L -198.0,22.5" style="stroke:black;fill:none;stroke-width:2.0;stroke-linecap:round;stroke-linejoin:round;" /><path d="M -210.6,4.5 L -198.0,4.5" style="stroke:black;fill:none;stroke-width:2.0;stroke-linecap:round;stroke-linejoin:round;" /><path d="M -156.6,13.5 L -144.0,13.5" style="stroke:black;fill:none;stroke-width:2.0;stroke-linecap:round;stroke-linejoin:round;" /><path d="M -138.6,35.37 L -144.0,35.37 L -144.0,13.5" style="stroke:black;fill:none;stroke-width:2;stroke-linecap:round;stroke-linejoin:round;" /><path d="M -138.6,35.37 L -144.0,35.37 L -144.0,13.5" style="stroke:black;fill:none;stroke-width:2;stroke-linecap:round;stroke-linejoin:round;" /><path d="M -216.0,54.0 L -216.0,54.0 L -196.02,54.0 M -163.98,54.0 L -144.0,54.0 L -144.0,54.0" style="stroke:black;fill:none;stroke-width:2.0;stroke-linecap:round;stroke-linejoin:round;" /><path d="M -196.02,36.0 L -172.62,54.0 L -196.02,72.0 L -196.02,36.0" style="stroke:black;fill:none;stroke-width:2.0;stroke-linecap:round;stroke-linejoin:round;" /><path d="M -138.6,47.25 L -144.0,47.25 L -144.0,54.0" style="stroke:black;fill:none;stroke-width:2;stroke-linecap:round;stroke-linejoin:round;" /><path d="M -138.6,47.25 L -144.0,47.25 L -144.0,54.0" style="stroke:black;fill:none;stroke-width:2;stroke-linecap:round;stroke-linejoin:round;" /><path d="M -216.0,81.0 L -216.0,81.0 L -196.02,81.0 M -163.98,81.0 L -144.0,81.0 L -144.0,81.0" style="stroke:black;fill:none;stroke-width:2.0;stroke-linecap:round;stroke-linejoin:round;" /><path d="M -196.02,63.0 L -172.62,81.0 L -196.02,99.0 L -196.02,63.0" style="stroke:black;fill:none;stroke-width:2.0;stroke-linecap:round;stroke-linejoin:round;" /><path d="M -138.6,59.13 L -144.0,59.13 L -144.0,81.0" style="stroke:black;fill:none;stroke-width:2;stroke-linecap:round;stroke-linejoin:round;" /><path d="M -138.6,59.13 L -144.0,59.13 L -144.0,81.0" style="stroke:black;fill:none;stroke-width:2;stroke-linecap:round;stroke-linejoin:round;" /><path d="M -68.4,92.25 L -72.0,92.25 L -72.0,47.25" style="stroke:black;fill:none;stroke-width:2;stroke-linecap:round;stroke-linejoin:round;" /><path d="M -68.4,92.25 L -72.0,92.25 L -72.0,47.25" style="stroke:black;fill:none;stroke-width:2;stroke-linecap:round;stroke-linejoin:round;" /><path d="M -102.60000000000001,173.25 L -101.44673604034718,173.21301706950607 L -100.29821108967889,173.10222024881844 L -99.1591446833753,172.91806482583917 L -98.03421748962887,172.66130753470253 L -96.92805207557483,172.33300344619204 L -95.84519391217127,171.93450163222838 L -94.79009269588396,171.46743962224355 L -93.76708406392912,170.933736674221 L -92.78037177821012,170.33558588805312 L -91.83401045115812,169.6754451936232 L -90.93188888445981,168.9560272506444 L -90.07771408913726,168.1802883017591 L -89.27499605264433,167.3514160247037 L -88.52703331557547,166.4728164334572 L -87.83689941725478,165.54809988219904 L -87.20743026590378,164.58106622958945 L -86.641212485286,163.57568922433506 L -86.14057278571538,162.5361001762031 L -85.7075684031043,161.46657097958354 L -85.3439786453401,160.37149655935858 L -85.05129758072718,159.25537681121367 L -84.83072789853989,158.12279811060083 L -84.68317596691443,156.97841446633828 L -84.60924810838762,155.8269283962898 L -84.60924810838762,154.6730716037102 L -84.68317596691443,153.52158553366172 L -84.83072789853989,152.37720188939917 L -85.05129758072718,151.24462318878633 L -85.3439786453401,150.12850344064142 L -85.7075684031043,149.03342902041646 L -86.14057278571538,147.96389982379694 L -86.641212485286,146.924310775665 L -87.20743026590378,145.91893377041055 L -87.83689941725478,144.95190011780096 L -88.52703331557547,144.0271835665428 L -89.27499605264433,143.1485839752963 L -90.07771408913723,142.3197116982409 L -90.93188888445981,141.5439727493556 L -91.83401045115811,140.8245548063768 L -92.78037177821012,140.16441411194688 L -93.76708406392912,139.566263325779 L -94.79009269588396,139.03256037775645 L -95.84519391217127,138.5654983677716 L -96.92805207557483,138.16699655380796 L -98.03421748962887,137.83869246529747 L -99.1591446833753,137.58193517416083 L -100.29821108967889,137.39777975118156 L -101.44673604034718,137.28698293049393 L -102.60000000000001,137.25 L -102.60000000000001,137.25 L -126.0,137.25 L -126.0,155.25 L -126.0,173.25 L -102.60000000000001,173.25" style="stroke:black;fill:none;stroke-width:2.0;stroke-linecap:round;stroke-linejoin:round;" /><path d="M -138.6,167.13 L -126.0,167.13" style="stroke:black;fill:none;stroke-width:2.0;stroke-linecap:round;stroke-linejoin:round;" /><path d="M -138.6,155.25 L -126.0,155.25" style="stroke:black;fill:none;stroke-width:2.0;stroke-linecap:round;stroke-linejoin:round;" /><path d="M -138.6,143.37 L -126.0,143.37" style="stroke:black;fill:none;stroke-width:2.0;stroke-linecap:round;stroke-linejoin:round;" /><path d="M -84.60000000000001,155.25 L -72.0,155.25" style="stroke:black;fill:none;stroke-width:2.0;stroke-linecap:round;stroke-linejoin:round;" /><path d="M -174.6,139.5 L -173.44673604034716,139.46301706950607 L -172.2982110896789,139.35222024881844 L -171.1591446833753,139.16806482583917 L -170.03421748962887,138.91130753470253 L -168.9280520755748,138.58300344619204 L -167.84519391217128,138.1845016322284 L -166.79009269588394,137.71743962224355 L -165.76708406392913,137.183736674221 L -164.7803717782101,136.58558588805315 L -163.83401045115812,135.9254451936232 L -162.9318888844598,135.2060272506444 L -162.07771408913723,134.4302883017591 L -161.27499605264433,133.6014160247037 L -160.52703331557547,132.7228164334572 L -159.8368994172548,131.79809988219904 L -159.20743026590378,130.83106622958945 L -158.641212485286,129.82568922433504 L -158.14057278571536,128.7861001762031 L -157.70756840310432,127.71657097958354 L -157.34397864534012,126.62149655935858 L -157.05129758072718,125.50537681121367 L -156.8307278985399,124.37279811060083 L -156.6831759669144,123.22841446633828 L -156.60924810838762,122.0769283962898 L -156.60924810838762,120.9230716037102 L -156.6831759669144,119.77158553366172 L -156.8307278985399,118.62720188939917 L -157.05129758072718,117.49462318878633 L -157.34397864534012,116.37850344064142 L -157.70756840310432,115.28342902041646 L -158.14057278571536,114.21389982379691 L -158.641212485286,113.17431077566496 L -159.20743026590378,112.16893377041055 L -159.8368994172548,111.20190011780095 L -160.52703331557547,110.2771835665428 L -161.27499605264433,109.39858397529629 L -162.07771408913723,108.56971169824091 L -162.9318888844598,107.79397274935558 L -163.83401045115812,107.07455480637678 L -164.7803717782101,106.41441411194688 L -165.76708406392913,105.81626332577899 L -166.79009269588394,105.28256037775645 L -167.84519391217128,104.81549836777161 L -168.9280520755748,104.41699655380796 L -170.03421748962887,104.08869246529747 L -171.1591446833753,103.83193517416082 L -172.2982110896789,103.64777975118156 L -173.44673604034716,103.53698293049393 L -174.6,103.5 L -174.6,103.5 L -198.0,103.5 L -198.0,121.5 L -198.0,139.5 L -174.6,139.5" style="stroke:black;fill:none;stroke-width:2.0;stroke-linecap:round;stroke-linejoin:round;" /><path d="M -210.6,130.5 L -198.0,130.5" style="stroke:black;fill:none;stroke-width:2.0;stroke-linecap:round;stroke-linejoin:round;" /><path d="M -210.6,112.5 L -198.0,112.5" style="stroke:black;fill:none;stroke-width:2.0;stroke-linecap:round;stroke-linejoin:round;" /><path d="M -156.6,121.5 L -144.0,121.5" style="stroke:black;fill:none;stroke-width:2.0;stroke-linecap:round;stroke-linejoin:round;" /><path d="M -138.6,143.37 L -144.0,143.37 L -144.0,121.5" style="stroke:black;fill:none;stroke-width:2;stroke-linecap:round;stroke-linejoin:round;" /><path d="M -138.6,143.37 L -144.0,143.37 L -144.0,121.5" style="stroke:black;fill:none;stroke-width:2;stroke-linecap:round;stroke-linejoin:round;" /><path d="M -216.0,162.0 L -216.0,162.0 L -196.02,162.0 M -163.98,162.0 L -144.0,162.0 L -144.0,162.0" style="stroke:black;fill:none;stroke-width:2.0;stroke-linecap:round;stroke-linejoin:round;" /><path d="M -196.02,144.0 L -172.62,162.0 L -196.02,180.0 L -196.02,144.0" style="stroke:black;fill:none;stroke-width:2.0;stroke-linecap:round;stroke-linejoin:round;" /><path d="M -138.6,155.25 L -144.0,155.25 L -144.0,162.0" style="stroke:black;fill:none;stroke-width:2;stroke-linecap:round;stroke-linejoin:round;" /><path d="M -138.6,155.25 L -144.0,155.25 L -144.0,162.0" style="stroke:black;fill:none;stroke-width:2;stroke-linecap:round;stroke-linejoin:round;" /><path d="M -216.0,189.0 L -216.0,189.0 L -196.02,189.0 M -163.98,189.0 L -144.0,189.0 L -144.0,189.0" style="stroke:black;fill:none;stroke-width:2.0;stroke-linecap:round;stroke-linejoin:round;" /><path d="M -196.02,171.0 L -172.62,189.0 L -196.02,207.0 L -196.02,171.0" style="stroke:black;fill:none;stroke-width:2.0;stroke-linecap:round;stroke-linejoin:round;" /><path d="M -138.6,167.13 L -144.0,167.13 L -144.0,189.0" style="stroke:black;fill:none;stroke-width:2;stroke-linecap:round;stroke-linejoin:round;" /><path d="M -138.6,167.13 L -144.0,167.13 L -144.0,189.0" style="stroke:black;fill:none;stroke-width:2;stroke-linecap:round;stroke-linejoin:round;" /><path d="M -68.4,110.25 L -72.0,110.25 L -72.0,155.25" style="stroke:black;fill:none;stroke-width:2;stroke-linecap:round;stroke-linejoin:round;" /><path d="M -68.4,110.25 L -72.0,110.25 L -72.0,155.25" style="stroke:black;fill:none;stroke-width:2;stroke-linecap:round;stroke-linejoin:round;" /><text x="3.600000000000003" y="95.64999999999999" fill="black" font-size="14.0" font-family="sans" text-anchor="start"><tspan x="3.600000000000003" dy="14.0">TopEvent</tspan></text><text x="3.600000000000003" y="95.64999999999999" fill="black" font-size="14.0" font-family="sans" text-anchor="start"><tspan x="3.600000000000003" dy="14.0">TopEvent</tspan></text><text x="-214.20000000000002" y="-1.0999999999999996" fill="black" font-size="14.0" font-family="sans" text-anchor="end"><tspan x="-214.20000000000002" dy="14.0">geofence_ON</tspan></text><text x="-214.20000000000002" y="16.9" fill="black" font-size="14.0" font-family="sans" text-anchor="end"><tspan x="-214.20000000000002" dy="14.0">geofenceAction_Warning</tspan></text><text x="-214.20000000000002" y="-1.0999999999999996" fill="black" font-size="14.0" font-family="sans" text-anchor="end"><tspan x="-214.20000000000002" dy="14.0">geofence_ON</tspan></text><text x="-214.20000000000002" y="16.9" fill="black" font-size="14.0" font-family="sans" text-anchor="end"><tspan x="-214.20000000000002" dy="14.0">geofenceAction_Warning</tspan></text><text x="-219.6" y="48.4" fill="black" font-size="14.0" font-family="sans" text-anchor="end"><tspan x="-219.6" dy="14.0">states_Takeoff</tspan></text><text x="-219.6" y="48.4" fill="black" font-size="14.0" font-family="sans" text-anchor="end"><tspan x="-219.6" dy="14.0">states_Takeoff</tspan></text><text x="-219.6" y="75.39999999999999" fill="black" font-size="14.0" font-family="sans" text-anchor="end"><tspan x="-219.6" dy="14.0">modes_POSCTL</tspan></text><text x="-219.6" y="75.39999999999999" fill="black" font-size="14.0" font-family="sans" text-anchor="end"><tspan x="-219.6" dy="14.0">modes_POSCTL</tspan></text><text x="-214.20000000000002" y="106.89999999999999" fill="black" font-size="14.0" font-family="sans" text-anchor="end"><tspan x="-214.20000000000002" dy="14.0">geofence_ON</tspan></text><text x="-214.20000000000002" y="124.89999999999999" fill="black" font-size="14.0" font-family="sans" text-anchor="end"><tspan x="-214.20000000000002" dy="14.0">geofenceAction_Warning</tspan></text><text x="-214.20000000000002" y="106.89999999999999" fill="black" font-size="14.0" font-family="sans" text-anchor="end"><tspan x="-214.20000000000002" dy="14.0">geofence_ON</tspan></text><text x="-214.20000000000002" y="124.89999999999999" fill="black" font-size="14.0" font-family="sans" text-anchor="end"><tspan x="-214.20000000000002" dy="14.0">geofenceAction_Warning</tspan></text><text x="-219.6" y="156.4" fill="black" font-size="14.0" font-family="sans" text-anchor="end"><tspan x="-219.6" dy="14.0">states_Takeoff</tspan></text><text x="-219.6" y="156.4" fill="black" font-size="14.0" font-family="sans" text-anchor="end"><tspan x="-219.6" dy="14.0">states_Takeoff</tspan></text><text x="-219.6" y="183.4" fill="black" font-size="14.0" font-family="sans" text-anchor="end"><tspan x="-219.6" dy="14.0">throttle_450</tspan></text><text x="-219.6" y="183.4" fill="black" font-size="14.0" font-family="sans" text-anchor="end"><tspan x="-219.6" dy="14.0">throttle_450</tspan></text></svg>