<svg xmlns="http://www.w3.org/2000/svg" xml:lang="en" height="207.20000000000005pt" width="422.38400000000007pt" viewBox="-353.53600000000006 -9.1 422.38400000000007 207.20000000000005"><circle cx="-152.28000000000003" cy="13.5" r="4.32" style="stroke:black;fill:none;stroke-width:2.0;" /><circle cx="-168.29999999999998" cy="94.5" r="4.32" style="stroke:black;fill:none;stroke-width:2.0;" /><circle cx="-168.29999999999998" cy="175.5" r="4.32" style="stroke:black;fill:none;stroke-width:2.0;" /><path d="M -55.80000000000001,129.01500000000001 L -37.80000000000001,129.01500000000001 L -37.2857142857143,129.0076530612245 L -36.77142857142859,128.98561224489796 L -36.257142857142874,128.94887755102042 L -35.742857142857154,128.89744897959184 L -35.22857142857144,128.83132653061224 L -34.71428571428573,128.75051020408165 L -34.20000000000002,128.655 L -33.6857142857143,128.54479591836736 L -33.171428571428585,128.4198979591837 L -32.65714285714287,128.280306122449 L -32.14285714285715,128.12602040816327 L -31.628571428571444,127.95704081632653 L -31.11428571428573,127.77336734693878 L -30.60000000000002,127.575 L -30.0857142857143,127.3619387755102 L -29.571428571428577,127.1341836734694 L -29.057142857142864,126.89173469387754 L -28.54285714285715,126.63459183673469 L -28.02857142857144,126.36275510204082 L -27.514285714285727,126.07622448979592 L -27.000000000000014,125.77499999999999 L -26.4857142857143,125.45908163265305 L -25.971428571428582,125.1284693877551 L -25.45714285714287,124.78316326530613 L -24.94285714285715,124.42316326530612 L -24.428571428571438,124.04846938775509 L -23.914285714285725,123.65908163265307 L -23.400000000000013,123.255 L -22.8857142857143,122.83622448979592 L -22.371428571428588,122.40275510204083 L -21.857142857142875,121.95459183673469 L -21.342857142857156,121.49173469387755 L -20.828571428571436,121.01418367346939 L -20.314285714285724,120.52193877551021 L -19.80000000000001,120.01500000000001 L -19.2857142857143,119.49336734693878 L -18.771428571428586,118.95704081632653 L -18.257142857142874,118.40602040816326 L -17.74285714285716,117.84030612244898 L -17.22857142857143,117.25989795918366 L -16.71428571428572,116.66479591836735 L -16.200000000000006,116.05499999999999 L -15.685714285714294,115.43051020408163 L -15.171428571428581,114.79132653061224 L -14.657142857142869,114.13744897959184 L -14.142857142857157,113.4688775510204 L -13.628571428571444,112.78561224489796 L -13.114285714285732,112.08765306122449 L -12.600000000000003,111.375 L -12.600000000000003,111.375 L -13.114285714285732,110.66234693877551 L -13.628571428571444,109.96438775510204 L -14.142857142857157,109.2811224489796 L -14.657142857142869,108.61255102040816 L -15.171428571428581,107.95867346938776 L -15.685714285714294,107.31948979591837 L -16.200000000000006,106.69500000000001 L -16.71428571428572,106.08520408163265 L -17.22857142857143,105.49010204081634 L -17.74285714285716,104.90969387755102 L -18.257142857142874,104.34397959183674 L -18.771428571428586,103.79295918367347 L -19.2857142857143,103.25663265306122 L -19.80000000000001,102.73499999999999 L -20.314285714285724,102.22806122448979 L -20.828571428571436,101.73581632653061 L -21.342857142857156,101.25826530612245 L -21.857142857142875,100.79540816326531 L -22.371428571428588,100.34724489795917 L -22.8857142857143,99.91377551020408 L -23.400000000000013,99.495 L -23.914285714285725,99.09091836734693 L -24.428571428571438,98.70153061224491 L -24.94285714285715,98.32683673469388 L -25.45714285714287,97.96683673469387 L -25.971428571428582,97.6215306122449 L -26.4857142857143,97.29091836734695 L -27.000000000000014,96.97500000000001 L -27.514285714285727,96.67377551020408 L -28.02857142857144,96.38724489795918 L -28.54285714285715,96.11540816326531 L -29.057142857142864,95.85826530612246 L -29.571428571428577,95.6158163265306 L -30.0857142857143,95.3880612244898 L -30.60000000000002,95.175 L -31.11428571428573,94.97663265306122 L -31.628571428571444,94.79295918367347 L -32.14285714285715,94.62397959183673 L -32.65714285714287,94.46969387755102 L -33.171428571428585,94.33010204081631 L -33.6857142857143,94.20520408163264 L -34.20000000000002,94.095 L -34.71428571428573,93.99948979591836 L -35.22857142857144,93.91867346938776 L -35.742857142857154,93.85255102040816 L -36.257142857142874,93.80112244897958 L -36.77142857142859,93.76438775510204 L -37.2857142857143,93.74234693877551 L -37.80000000000001,93.73499999999999 L -55.80000000000001,93.73499999999999 L -55.80000000000001,93.73499999999999 L -55.108800000000016,94.455 L -54.44640000000001,95.175 L -53.81280000000001,95.895 L -53.208000000000006,96.615 L -52.632000000000005,97.335 L -52.08480000000001,98.05499999999999 L -51.566400000000016,98.77499999999999 L -51.07680000000001,99.495 L -50.616000000000014,100.215 L -50.18400000000001,100.935 L -49.780800000000006,101.655 L -49.40640000000001,102.375 L -49.060800000000015,103.095 L -48.744000000000014,103.815 L -48.45600000000001,104.535 L -48.19680000000002,105.255 L -47.96640000000001,105.97500000000001 L -47.764800000000015,106.69500000000001 L -47.59200000000001,107.415 L -47.44800000000001,108.135 L -47.33280000000001,108.855 L -47.24640000000001,109.575 L -47.188800000000015,110.29499999999999 L -47.16000000000001,111.01500000000001 L -47.16000000000001,111.73499999999999 L -47.188800000000015,112.45500000000001 L -47.24640000000001,113.175 L -47.33280000000001,113.895 L -47.44800000000001,114.615 L -47.59200000000001,115.335 L -47.764800000000015,116.05499999999999 L -47.96640000000001,116.77499999999999 L -48.19680000000002,117.495 L -48.45600000000001,118.215 L -48.744000000000014,118.935 L -49.06080000000001,119.655 L -49.40640000000001,120.375 L -49.780800000000006,121.095 L -50.18400000000001,121.815 L -50.616000000000014,122.535 L -51.07680000000001,123.255 L -51.566400000000016,123.97500000000001 L -52.08480000000001,124.69500000000001 L -52.632000000000005,125.415 L -53.20800000000001,126.135 L -53.81280000000001,126.855 L -54.44640000000001,127.575 L -55.108800000000016,128.29500000000002 L -55.80000000000001,129.01500000000001" style="stroke:black;fill:none;stroke-width:2.0;stroke-linecap:round;stroke-linejoin:round;" /><path d="M -68.4,120.375 L -49.40640000000001,120.375" style="stroke:black;fill:none;stroke-width:2.0;stroke-linecap:round;stroke-linejoin:round;" /><path d="M -68.4,102.375 L -49.40640000000001,102.375" style="stroke:black;fill:none;stroke-width:2.0;stroke-linecap:round;stroke-linejoin:round;" /><path d="M -12.600000000000003,111.375 L 0.0,111.375" style="stroke:black;fill:none;stroke-width:2.0;stroke-linecap:round;stroke-linejoin:round;" /><path d="M -102.60000000000001,72.0 L -101.44673604034718,71.96301706950605 L -100.29821108967889,71.85222024881843 L -99.1591446833753,71.66806482583918 L -98.03421748962887,71.41130753470253 L -96.92805207557483,71.08300344619204 L -95.84519391217127,70.68450163222839 L -94.79009269588396,70.21743962224355 L -93.76708406392912,69.68373667422101 L -92.78037177821012,69.08558588805313 L -91.83401045115812,68.42544519362322 L -90.93188888445981,67.70602725064442 L -90.07771408913726,66.93028830175909 L -89.27499605264433,66.10141602470371 L -88.52703331557547,65.2228164334572 L -87.83689941725478,64.29809988219905 L -87.20743026590378,63.33106622958945 L -86.641212485286,62.325689224335036 L -86.14057278571538,61.286100176203085 L -85.7075684031043,60.21657097958354 L -85.3439786453401,59.12149655935858 L -85.05129758072718,58.00537681121366 L -84.83072789853989,56.872798110600826 L -84.68317596691443,55.72841446633828 L -84.60924810838762,54.5769283962898 L -84.60924810838762,53.42307160371021 L -84.68317596691443,52.271585533661735 L -84.83072789853989,51.127201889399174 L -85.05129758072718,49.99462318878634 L -85.3439786453401,48.87850344064142 L -85.7075684031043,47.78342902041646 L -86.14057278571538,46.713899823796915 L -86.641212485286,45.674310775664964 L -87.20743026590378,44.66893377041055 L -87.83689941725478,43.701900117800946 L -88.52703331557547,42.7771835665428 L -89.27499605264433,41.898583975296305 L -90.07771408913723,41.0697116982409 L -90.93188888445981,40.29397274935558 L -91.83401045115811,39.57455480637678 L -92.78037177821012,38.91441411194687 L -93.76708406392912,38.31626332577899 L -94.79009269588396,37.782560377756454 L -95.84519391217127,37.31549836777161 L -96.92805207557483,36.91699655380796 L -98.03421748962887,36.58869246529747 L -99.1591446833753,36.331935174160826 L -100.29821108967889,36.147779751181574 L -101.44673604034718,36.03698293049395 L -102.60000000000001,36.0 L -102.60000000000001,36.0 L -126.0,36.0 L -126.0,54.0 L -126.0,72.0 L -102.60000000000001,72.0" style="stroke:black;fill:none;stroke-width:2.0;stroke-linecap:round;stroke-linejoin:round;" /><path d="M -138.6,75.60000000000001 L -126.0,75.60000000000001" style="stroke:black;fill:none;stroke-width:2.0;stroke-linecap:round;stroke-linejoin:round;" /><path d="M -138.6,61.199999999999996 L -126.0,61.199999999999996" style="stroke:black;fill:none;stroke-width:2.0;stroke-linecap:round;stroke-linejoin:round;" /><path d="M -138.6,46.800000000000004 L -126.0,46.800000000000004" style="stroke:black;fill:none;stroke-width:2.0;stroke-linecap:round;stroke-linejoin:round;" /><path d="M -138.6,32.4 L -126.0,32.4" style="stroke:black;fill:none;stroke-width:2.0;stroke-linecap:round;stroke-linejoin:round;" /><path d="M -126.0,25.2 L -126.0,82.8" style="stroke:black;fill:none;stroke-width:2.0;stroke-linecap:round;stroke-linejoin:round;" /><path d="M -84.60000000000001,54.0 L -72.0,54.0" style="stroke:black;fill:none;stroke-width:2.0;stroke-linecap:round;stroke-linejoin:round;" /><path d="M -174.6,31.5 L -173.44673604034716,31.463017069506055 L -172.2982110896789,31.35222024881843 L -171.1591446833753,31.168064825839174 L -170.03421748962887,30.91130753470253 L -168.9280520755748,30.583003446192034 L -167.84519391217128,30.18450163222839 L -166.79009269588394,29.717439622243543 L -165.76708406392913,29.18373667422101 L -164.7803717782101,28.58558588805313 L -163.83401045115812,27.925445193623222 L -162.9318888844598,27.206027250644418 L -162.07771408913723,26.4302883017591 L -161.27499605264433,25.601416024703703 L -160.52703331557547,24.7228164334572 L -159.8368994172548,23.798099882199054 L -159.20743026590378,22.83106622958945 L -158.641212485286,21.825689224335036 L -158.14057278571536,20.786100176203092 L -157.70756840310432,19.71657097958354 L -157.34397864534012,18.621496559358587 L -157.05129758072718,17.505376811213658 L -156.8307278985399,16.372798110600826 L -156.6831759669144,15.228414466338274 L -156.60924810838762,14.076928396289794 L -156.60924810838762,12.92307160371021 L -156.6831759669144,11.77158553366173 L -156.8307278985399,10.627201889399178 L -157.05129758072718,9.494623188786342 L -157.34397864534012,8.378503440641417 L -157.70756840310432,7.283429020416464 L -158.14057278571536,6.213899823796913 L -158.641212485286,5.174310775664967 L -159.20743026590378,4.168933770410549 L -159.8368994172548,3.20190011780095 L -160.52703331557547,2.2771835665427975 L -161.27499605264433,1.3985839752963019 L -162.07771408913723,0.5697116982409052 L -162.9318888844598,-0.20602725064441563 L -163.83401045115812,-0.9254451936232191 L -164.7803717782101,-1.5855858880531268 L -165.76708406392913,-2.1837366742210054 L -166.79009269588394,-2.7174396222435444 L -167.84519391217128,-3.1845016322283897 L -168.9280520755748,-3.5830034461920355 L -170.03421748962887,-3.9113075347025283 L -171.1591446833753,-4.168064825839176 L -172.2982110896789,-4.352220248818429 L -173.44673604034716,-4.463017069506054 L -174.6,-4.5 L -174.6,-4.5 L -198.0,-4.5 L -198.0,13.5 L -198.0,31.5 L -174.6,31.5" style="stroke:black;fill:none;stroke-width:2.0;stroke-linecap:round;stroke-linejoin:round;" /><path d="M -210.6,22.5 L -198.0,22.5" style="stroke:black;fill:none;stroke-width:2.0;stroke-linecap:round;stroke-linejoin:round;" /><path d="M -210.6,4.5 L -198.0,4.5" style="stroke:black;fill:none;stroke-width:2.0;stroke-linecap:round;stroke-linejoin:round;" /><path d="M -147.96,13.5 L -144.0,13.5" style="stroke:black;fill:none;stroke-width:2.0;stroke-linecap:round;stroke-linejoin:round;" /><path d="M -138.6,32.4 L -144.0,32.4 L -144.0,13.5" style="stroke:black;fill:none;stroke-width:2;stroke-linecap:round;stroke-linejoin:round;" /><path d="M -138.6,32.4 L -144.0,32.4 L -144.0,13.5" style="stroke:black;fill:none;stroke-width:2;stroke-linecap:round;stroke-linejoin:round;" /><path d="M -216.0,94.5 L -216.0,94.5 L -196.02,94.5 M -163.98,94.5 L -144.0,94.5 L -144.0,94.5" style="stroke:black;fill:none;stroke-width:2.0;stroke-linecap:round;stroke-linejoin:round;" /><path d="M -196.02,76.5 L -172.62,94.5 L -196.02,112.5 L -196.02,76.5" style="stroke:black;fill:none;stroke-width:2.0;stroke-linecap:round;stroke-linejoin:round;" /><path d="M -138.6,75.60000000000001 L -144.0,75.60000000000001 L -144.0,94.5" style="stroke:black;fill:none;stroke-width:2;stroke-linecap:round;stroke-linejoin:round;" /><path d="M -138.6,75.60000000000001 L -144.0,75.60000000000001 L -144.0,94.5" style="stroke:black;fill:none;stroke-width:2;stroke-linecap:round;stroke-linejoin:round;" /><path d="M -68.4,102.375 L -72.0,102.375 L -72.0,54.0" style="stroke:black;fill:none;stroke-width:2;stroke-linecap:round;stroke-linejoin:round;" /><path d="M -68.4,102.375 L -72.0,102.375 L -72.0,54.0" style="stroke:black;fill:none;stroke-width:2;stroke-linecap:round;stroke-linejoin:round;" /><path d="M -102.60000000000001,186.75 L -101.44673604034718,186.71301706950607 L -100.29821108967889,186.60222024881844 L -99.1591446833753,186.41806482583917 L -98.03421748962887,186.16130753470253 L -96.92805207557483,185.83300344619204 L -95.84519391217127,185.43450163222838 L -94.79009269588396,184.96743962224355 L -93.76708406392912,184.433736674221 L -92.78037177821012,183.83558588805312 L -91.83401045115812,183.1754451936232 L -90.93188888445981,182.4560272506444 L -90.07771408913726,181.6802883017591 L -89.27499605264433,180.8514160247037 L -88.52703331557547,179.9728164334572 L -87.83689941725478,179.04809988219904 L -87.20743026590378,178.08106622958945 L -86.641212485286,177.07568922433506 L -86.14057278571538,176.0361001762031 L -85.7075684031043,174.96657097958354 L -85.3439786453401,173.87149655935858 L -85.05129758072718,172.75537681121367 L -84.83072789853989,171.62279811060083 L -84.68317596691443,170.47841446633828 L -84.60924810838762,169.3269283962898 L -84.60924810838762,168.1730716037102 L -84.68317596691443,167.02158553366172 L -84.83072789853989,165.87720188939917 L -85.05129758072718,164.74462318878633 L -85.3439786453401,163.62850344064142 L -85.7075684031043,162.53342902041646 L -86.14057278571538,161.46389982379694 L -86.641212485286,160.424310775665 L -87.20743026590378,159.41893377041055 L -87.83689941725478,158.45190011780096 L -88.52703331557547,157.5271835665428 L -89.27499605264433,156.6485839752963 L -90.07771408913723,155.81971169824092 L -90.93188888445981,155.0439727493556 L -91.83401045115811,154.3245548063768 L -92.78037177821012,153.66441411194688 L -93.76708406392912,153.066263325779 L -94.79009269588396,152.53256037775645 L -95.84519391217127,152.06549836777162 L -96.92805207557483,151.66699655380796 L -98.03421748962887,151.33869246529747 L -99.1591446833753,151.08193517416083 L -100.29821108967889,150.89777975118156 L -101.44673604034718,150.78698293049393 L -102.60000000000001,150.75 L -102.60000000000001,150.75 L -126.0,150.75 L -126.0,168.75 L -126.0,186.75 L -102.60000000000001,186.75" style="stroke:black;fill:none;stroke-width:2.0;stroke-linecap:round;stroke-linejoin:round;" /><path d="M -138.6,180.63 L -126.0,180.63" style="stroke:black;fill:none;stroke-width:2.0;stroke-linecap:round;stroke-linejoin:round;" /><path d="M -138.6,168.75 L -126.0,168.75" style="stroke:black;fill:none;stroke-width:2.0;stroke-linecap:round;stroke-linejoin:round;" /><path d="M -138.6,156.87 L -126.0,156.87" style="stroke:black;fill:none;stroke-width:2.0;stroke-linecap:round;stroke-linejoin:round;" /><path d="M -84.60000000000001,168.75 L -72.0,168.75" style="stroke:black;fill:none;stroke-width:2.0;stroke-linecap:round;stroke-linejoin:round;" /><path d="M -174.6,153.0 L -173.44673604034716,152.96301706950607 L -172.2982110896789,152.85222024881844 L -171.1591446833753,152.66806482583917 L -170.03421748962887,152.41130753470253 L -168.9280520755748,152.08300344619204 L -167.84519391217128,151.68450163222838 L -166.79009269588394,151.21743962224355 L -165.76708406392913,150.683736674221 L -164.7803717782101,150.08558588805312 L -163.83401045115812,149.4254451936232 L -162.9318888844598,148.7060272506444 L -162.07771408913723,147.9302883017591 L -161.27499605264433,147.1014160247037 L -160.52703331557547,146.2228164334572 L -159.8368994172548,145.29809988219904 L -159.20743026590378,144.33106622958945 L -158.641212485286,143.32568922433504 L -158.14057278571536,142.2861001762031 L -157.70756840310432,141.21657097958354 L -157.34397864534012,140.12149655935858 L -157.05129758072718,139.00537681121367 L -156.8307278985399,137.87279811060083 L -156.6831759669144,136.72841446633828 L -156.60924810838762,135.5769283962898 L -156.60924810838762,134.4230716037102 L -156.6831759669144,133.27158553366172 L -156.8307278985399,132.12720188939917 L -157.05129758072718,130.99462318878633 L -157.34397864534012,129.87850344064142 L -157.70756840310432,128.78342902041646 L -158.14057278571536,127.71389982379691 L -158.641212485286,126.67431077566496 L -159.20743026590378,125.66893377041055 L -159.8368994172548,124.70190011780095 L -160.52703331557547,123.7771835665428 L -161.27499605264433,122.89858397529629 L -162.07771408913723,122.06971169824091 L -162.9318888844598,121.29397274935558 L -163.83401045115812,120.57455480637678 L -164.7803717782101,119.91441411194688 L -165.76708406392913,119.31626332577899 L -166.79009269588394,118.78256037775645 L -167.84519391217128,118.31549836777161 L -168.9280520755748,117.91699655380796 L -170.03421748962887,117.58869246529747 L -171.1591446833753,117.33193517416082 L -172.2982110896789,117.14777975118156 L -173.44673604034716,117.03698293049393 L -174.6,117.0 L -174.6,117.0 L -198.0,117.0 L -198.0,135.0 L -198.0,153.0 L -174.6,153.0" style="stroke:black;fill:none;stroke-width:2.0;stroke-linecap:round;stroke-linejoin:round;" /><path d="M -210.6,144.0 L -198.0,144.0" style="stroke:black;fill:none;stroke-width:2.0;stroke-linecap:round;stroke-linejoin:round;" /><path d="M -210.6,126.0 L -198.0,126.0" style="stroke:black;fill:none;stroke-width:2.0;stroke-linecap:round;stroke-linejoin:round;" /><path d="M -156.6,135.0 L -144.0,135.0" style="stroke:black;fill:none;stroke-width:2.0;stroke-linecap:round;stroke-linejoin:round;" /><path d="M -138.6,156.87 L -144.0,156.87 L -144.0,135.0" style="stroke:black;fill:none;stroke-width:2;stroke-linecap:round;stroke-linejoin:round;" /><path d="M -138.6,156.87 L -144.0,156.87 L -144.0,135.0" style="stroke:black;fill:none;stroke-width:2;stroke-linecap:round;stroke-linejoin:round;" /><path d="M -216.0,175.5 L -216.0,175.5 L -196.02,175.5 M -163.98,175.5 L -144.0,175.5 L -144.0,175.5" style="stroke:black;fill:none;stroke-width:2.0;stroke-linecap:round;stroke-linejoin:round;" /><path d="M -196.02,157.5 L -172.62,175.5 L -196.02,193.5 L -196.02,157.5" style="stroke:black;fill:none;stroke-width:2.0;stroke-linecap:round;stroke-linejoin:round;" /><path d="M -138.6,168.75 L -144.0,168.75 L -144.0,175.5" style="stroke:black;fill:none;stroke-width:2;stroke-linecap:round;stroke-linejoin:round;" /><path d="M -138.6,168.75 L -144.0,168.75 L -144.0,175.5" style="stroke:black;fill:none;stroke-width:2;stroke-linecap:round;stroke-linejoin:round;" /><path d="M -68.4,120.375 L -72.0,120.375 L -72.0,168.75" style="stroke:black;fill:none;stroke-width:2;stroke-linecap:round;stroke-linejoin:round;" /><path d="M -68.4,120.375 L -72.0,120.375 L -72.0,168.75" style="stroke:black;fill:none;stroke-width:2;stroke-linecap:round;stroke-linejoin:round;" /><text x="3.600000000000003" y="105.77499999999999" fill="black" font-size="14.0" font-family="sans" text-anchor="start"><tspan x="3.600000000000003" dy="14.0">TopEvent</tspan></text><text x="3.600000000000003" y="105.77499999999999" fill="black" font-size="14.0" font-family="sans" text-anchor="start"><tspan x="3.600000000000003" dy="14.0">TopEvent</tspan></text><text x="-142.20000000000002" y="41.2" fill="black" font-size="14.0" font-family="sans" text-anchor="end"><tspan x="-142.20000000000002" dy="14.0">states_Flying</tspan></text><text x="-142.20000000000002" y="55.599999999999994" fill="black" font-size="14.0" font-family="sans" text-anchor="end"><tspan x="-142.20000000000002" dy="14.0">modes_LOITER</tspan></text><text x="-142.20000000000002" y="41.2" fill="black" font-size="14.0" font-family="sans" text-anchor="end"><tspan x="-142.20000000000002" dy="14.0">states_Flying</tspan></text><text x="-142.20000000000002" y="55.599999999999994" fill="black" font-size="14.0" font-family="sans" text-anchor="end"><tspan x="-142.20000000000002" dy="14.0">modes_LOITER</tspan></text><text x="-214.20000000000002" y="-1.0999999999999996" fill="black" font-size="14.0" font-family="sans" text-anchor="end"><tspan x="-214.20000000000002" dy="14.0">geofence_ON</tspan></text><text x="-214.20000000000002" y="16.9" fill="black" font-size="14.0" font-family="sans" text-anchor="end"><tspan x="-214.20000000000002" dy="14.0">geofenceAction_OFF</tspan></text><text x="-214.20000000000002" y="-1.0999999999999996" fill="black" font-size="14.0" font-family="sans" text-anchor="end"><tspan x="-214.20000000000002" dy="14.0">geofence_ON</tspan></text><text x="-214.20000000000002" y="16.9" fill="black" font-size="14.0" font-family="sans" text-anchor="end"><tspan x="-214.20000000000002" dy="14.0">geofenceAction_OFF</tspan></text><text x="-219.6" y="88.89999999999999" fill="black" font-size="14.0" font-family="sans" text-anchor="end"><tspan x="-219.6" dy="14.0">throttle_435</tspan></text><text x="-219.6" y="88.89999999999999" fill="black" font-size="14.0" font-family="sans" text-anchor="end"><tspan x="-219.6" dy="14.0">throttle_435</tspan></text><text x="-142.20000000000002" y="175.03" fill="black" font-size="14.0" font-family="sans" text-anchor="end"><tspan x="-142.20000000000002" dy="14.0">modes_LOITER</tspan></text><text x="-142.20000000000002" y="175.03" fill="black" font-size="14.0" font-family="sans" text-anchor="end"><tspan x="-142.20000000000002" dy="14.0">modes_LOITER</tspan></text><text x="-214.20000000000002" y="120.39999999999999" fill="black" font-size="14.0" font-family="sans" text-anchor="end"><tspan x="-214.20000000000002" dy="14.0">geofence_ON</tspan></text><text x="-214.20000000000002" y="138.4" fill="black" font-size="14.0" font-family="sans" text-anchor="end"><tspan x="-214.20000000000002" dy="14.0">geofenceAction_OFF</tspan></text><text x="-214.20000000000002" y="120.39999999999999" fill="black" font-size="14.0" font-family="sans" text-anchor="end"><tspan x="-214.20000000000002" dy="14.0">geofence_ON</tspan></text><text x="-214.20000000000002" y="138.4" fill="black" font-size="14.0" font-family="sans" text-anchor="end"><tspan x="-214.20000000000002" dy="14.0">geofenceAction_OFF</tspan></text><text x="-219.6" y="169.9" fill="black" font-size="14.0" font-family="sans" text-anchor="end"><tspan x="-219.6" dy="14.0">states_Flying</tspan></text><text x="-219.6" y="169.9" fill="black" font-size="14.0" font-family="sans" text-anchor="end"><tspan x="-219.6" dy="14.0">states_Flying</tspan></text></svg>